<?xml version="1.0" encoding="utf-8"?>
<!-- Svg Vector Icons : http://www.onlinewebfonts.com/icon -->
<!DOCTYPE svg PUBLIC "-//W3C//DTD SVG 1.1//EN" "http://www.w3.org/Graphics/SVG/1.1/DTD/svg11.dtd">
<svg version="1.1" xmlns="http://www.w3.org/2000/svg" xmlns:xlink="http://www.w3.org/1999/xlink" x="0px" y="0px" viewBox="0 0 256 256" enable-background="new 0 0 256 256" xml:space="preserve">
<metadata> Svg Vector Icons : http://www.onlinewebfonts.com/icon </metadata>
<g><g><path fill="#000000" d="M165.8,27.2c-2.2-0.6-4.4,0.6-5.1,2.8c-0.6,2.2,0.7,4.4,2.8,5.1c44.1,12.7,74.7,54.9,74.3,102.6c-0.3,28.3-11,54.8-30.4,74.6c-19.2,19.6-52.6,30.4-79.4,30.4h-0.8c-56,0-109.4-48.3-108.9-106.6c0.4-47.7,31.6-89.5,76-101.5c2.2-0.6,3.5-2.8,2.9-5c-0.6-2.2-2.8-3.5-5-2.9c-47.9,12.9-81.6,58-82,109.3c-0.5,62.7,56.5,114.8,117.1,114.8h0.9c29,0,64.6-11.7,85.3-32.9c20.9-21.3,32.5-49.8,32.8-80.2C246.4,86.5,213.4,41,165.8,27.2z M128.2,144.4L128.2,144.4c2.3,0,4.1-2.6,4.1-4.9l1.1-129c0-2.3-1.8-5.4-4.1-5.4h0c-2.3,0-4.1,2.7-4.1,4.9l-1,129C124.1,141.3,125.9,144.4,128.2,144.4z"/></g></g>
</svg>